<?xml version="1.0" encoding="UTF-8"?>
<svg version="1.1" xmlns="http://www.w3.org/2000/svg" width="512" height="512">
<path d="M0 0 C1.51427582 0.00081573 1.51427582 0.00081573 3.05914307 0.00164795 C19.56873539 0.04241399 35.48532001 0.94970691 51.6875 4.375 C52.72938477 4.59462402 53.77126953 4.81424805 54.84472656 5.04052734 C69.13870715 8.15837152 84.53906957 11.72343008 97.66999817 18.38000488 C103.93026416 21.54079328 109.60616157 22.12029744 116.546875 22.4296875 C117.70183472 22.49658783 118.85679443 22.56348816 120.04675293 22.63241577 C122.54172827 22.7764809 125.03712073 22.91346317 127.53283691 23.04406738 C134.22234192 23.39687305 140.90808728 23.80820084 147.59375 24.2265625 C148.28508278 24.26939865 148.97641556 24.3122348 149.68869781 24.35636902 C166.14308704 25.38437036 182.53698008 26.96109662 198.9375 28.625 C200.304646 28.76317122 201.67179281 28.90133452 203.03894043 29.03948975 C210.58992277 29.80401458 218.13944918 30.58205349 225.6875 31.375 C229.03354164 62.68734029 231.74985719 94.00007193 233.890625 125.41796875 C233.96425262 126.48203445 234.03788025 127.54610016 234.11373901 128.64241028 C234.41746112 133.08710842 234.70774636 137.52777181 234.89013672 141.97924805 C235.22905986 149.35151519 236.17420533 155.13740866 239.3125 161.8125 C246.9717595 179.55876167 251.80012781 198.28258252 254.6875 217.375 C254.86410156 218.49745117 255.04070312 219.61990234 255.22265625 220.77636719 C256.8795586 232.38947743 257.08623513 243.90679945 257.0625 255.625 C257.06168427 257.14302216 257.06168427 257.14302216 257.06085205 258.69171143 C257.02011956 275.22030572 256.11674222 291.15413999 252.6875 307.375 C252.46787598 308.41688477 252.24825195 309.45876953 252.02197266 310.53222656 C241.92435215 356.82549311 219.56521242 399.23913721 186.6875 433.375 C186.05537598 434.03435547 185.42325195 434.69371094 184.77197266 435.37304688 C175.62752521 444.86130305 166.33015991 453.6012044 155.6875 461.375 C154.53644983 462.23306152 153.38540823 463.09113451 152.234375 463.94921875 C144.04319386 469.98736829 135.52945895 475.34595521 126.6875 480.375 C126.05569824 480.73948242 125.42389648 481.10396484 124.77294922 481.47949219 C98.68785999 496.40973018 69.35164886 505.88885054 39.6875 510.375 C38.56504883 510.55160156 37.44259766 510.72820312 36.28613281 510.91015625 C24.67302257 512.5670586 13.15570055 512.77373513 1.4375 512.75 C-0.08052216 512.74918427 -0.08052216 512.74918427 -1.62921143 512.74835205 C-18.15780572 512.70761956 -34.09163999 511.80424222 -50.3125 508.375 C-51.35438477 508.15537598 -52.39626953 507.93575195 -53.46972656 507.70947266 C-94.72199434 498.71140931 -133.29861405 479.99081216 -165.3125 452.375 C-166.05757813 451.74078125 -166.80265625 451.1065625 -167.5703125 450.453125 C-181.07529833 438.64198485 -193.74668743 425.89139772 -204.3125 411.375 C-205.16899066 410.22505169 -206.02576433 409.07531411 -206.8828125 407.92578125 C-212.9234414 399.73410474 -218.28255071 391.21854922 -223.3125 382.375 C-223.67698242 381.74319824 -224.04146484 381.11139648 -224.41699219 380.46044922 C-246.02284998 342.71217428 -255.78948095 299.94560003 -255.625 256.75 C-255.62284485 255.73209381 -255.6206897 254.71418762 -255.61846924 253.66543579 C-255.56879854 239.05636477 -255.31790191 224.72424147 -252.3125 210.375 C-252.11382324 209.40014648 -251.91514648 208.42529297 -251.71044922 207.42089844 C-244.7080349 173.94568631 -244.7080349 173.94568631 -237.33964539 159.46281433 C-234.20036811 153.14428396 -233.55505339 147.48319885 -233.22265625 140.48828125 C-233.15306702 139.33678589 -233.08347778 138.18529053 -233.01177979 136.99890137 C-232.86296657 134.5195086 -232.72146113 132.03966837 -232.58657837 129.55947876 C-232.26267383 123.6318808 -231.89269044 117.70721536 -231.51880455 111.7825985 C-231.43308973 110.42338152 -231.34792996 109.06412943 -231.2633152 107.70484352 C-230.33526332 92.83903177 -229.03308896 78.01564074 -227.625 63.1875 C-227.51640656 62.03383942 -227.40781311 60.88017883 -227.29592896 59.69155884 C-225.45116681 40.13806197 -225.45116681 40.13806197 -224.3125 31.375 C-193.00015971 28.02895836 -161.68742807 25.31264281 -130.26953125 23.171875 C-129.20546555 23.09824738 -128.14139984 23.02461975 -127.04508972 22.94876099 C-122.60039158 22.64503888 -118.15972819 22.35475364 -113.70825195 22.17236328 C-106.33612435 21.83344656 -100.54990638 20.88855151 -93.875 17.75 C-79.41312263 11.50278558 -64.30072497 7.21471336 -48.875 4.0625 C-48.15634766 3.91522461 -47.43769531 3.76794922 -46.69726562 3.61621094 C-31.17058409 0.66434406 -15.76947433 -0.0320801 0 0 Z " fill="#BC5423" transform="translate(255.3125,-0.375)"/>
<path d="M0 0 C7.06999444 0.03469012 14.14000263 0.0503078 21.21006215 0.06511056 C35.64780385 0.09572653 50.08541165 0.14779501 64.52302432 0.21608138 C64.49379508 0.95623992 64.46456584 1.69639846 64.43445086 2.45898604 C64.30075414 5.85585198 64.16822877 9.25276267 64.03571963 12.64967513 C63.98972629 13.81381942 63.94373294 14.97796371 63.89634585 16.17738509 C63.54595091 25.19162247 63.2953738 34.19415674 63.27302432 43.21608138 C63.27068789 43.9159114 63.26835147 44.61574142 63.26594424 45.3367784 C63.24991851 58.29230853 64.3440849 70.9779568 66.2476337 83.80128646 C66.5318968 86.29388075 66.56999511 88.70957485 66.52302432 91.21608138 C65.28552432 91.60795638 64.04802432 91.99983138 62.77302432 92.40358138 C50.9569303 96.39801568 38.77076009 100.60982997 32.33161807 112.10670638 C30.41807982 117.0985453 30.90723825 121.53077214 32.71052432 126.46608138 C40.15014939 137.75378838 52.66371239 143.03698302 65.39802432 145.90358138 C69.93230211 146.82604073 73.85963212 147.28006072 78.47614932 147.02467513 C91.09485914 146.45506813 91.09485914 146.45506813 95.47077823 149.62867904 C99.31308278 153.54776569 102.15195379 158.11561843 104.99323916 162.7859056 C107.01408684 165.99617016 109.29189751 168.97062946 111.58845401 171.98658919 C124.74781965 189.40272355 133.45223679 206.82634798 131.52302432 229.21608138 C128.94795111 234.96047546 125.01907484 237.84242241 119.20661807 240.12623763 C105.00872971 244.46840832 85.61258568 243.91260183 71.52302432 239.21608138 C75.53805926 255.20515856 80.43015987 268.66857371 92.02302432 280.84108138 C93.52302432 283.21608138 93.52302432 283.21608138 93.77302432 286.71608138 C91.98696585 291.71704511 89.05876609 292.83130994 84.52302432 295.21608138 C83.03627277 296.12039418 81.55669743 297.03663989 80.08552432 297.96608138 C79.42681338 298.37342513 78.76810245 298.78076888 78.08943057 299.20045638 C76.5452651 300.12430074 76.5452651 300.12430074 75.52302432 301.21608138 C74.8529001 304.00199998 74.8529001 304.00199998 75.52302432 307.21608138 C77.12089497 308.9236959 78.85485756 310.27982168 80.69880557 311.71608138 C84.29481444 314.6729709 86.22263123 317.74415524 87.14802432 322.27858138 C86.4265732 325.66940163 85.24093821 326.7870622 82.57380557 328.90236068 C77.37294169 332.23400931 71.30026585 334.10771632 65.5523212 336.29030013 C58.75528068 338.97839525 52.73556839 341.98618299 47.52302432 347.21608138 C47.1695946 348.06600158 46.81616488 348.91592177 46.45202518 349.79159713 C44.52302432 352.21608138 44.52302432 352.21608138 40.71870303 352.84427047 C39.08794149 352.87107015 37.45658367 352.8697972 35.8257587 352.8471849 C34.92994555 352.8542439 34.03413239 352.8613029 33.11117339 352.86857581 C30.11255354 352.88537309 27.11535371 352.86562744 24.11677432 352.84498763 C21.9928755 352.84726109 19.86897793 352.85128983 17.74508548 352.85696578 C12.02430909 352.86415085 6.3042028 352.83643046 0.58355975 352.79943252 C-2.96927434 352.77862648 -6.52202379 352.76701267 -10.07490659 352.75825667 C-51.63492514 352.6457972 -93.02822707 351.23265394 -134.47697568 348.21608138 C-135.72875607 348.12612899 -136.98053647 348.0361766 -138.27024961 347.94349837 C-141.83063107 347.68479218 -145.3902398 347.41771984 -148.94963193 347.14576888 C-150.00911542 347.06698501 -151.06859891 346.98820113 -152.16018796 346.90702987 C-153.59329061 346.79293273 -153.59329061 346.79293273 -155.05534482 346.6765306 C-155.89021924 346.61150344 -156.72509366 346.54647628 -157.58526731 346.4794786 C-159.47697568 346.21608138 -159.47697568 346.21608138 -160.47697568 345.21608138 C-160.75875989 342.67058576 -160.97910342 340.1444045 -161.16056943 337.59108138 C-161.2502625 336.39575789 -161.2502625 336.39575789 -161.34176755 335.17628646 C-161.53840943 332.52326912 -161.72707419 329.86976661 -161.91447568 327.21608138 C-161.98011716 326.30294173 -162.04575864 325.38980208 -162.11338925 324.44899154 C-163.09692375 310.71236274 -163.92718424 296.97125108 -164.60197568 283.21608138 C-164.64031522 282.44892806 -164.67865476 281.68177474 -164.7181561 280.89137435 C-165.0086433 275.00096144 -165.24826063 269.10918002 -165.47697568 263.21608138 C-165.52074338 262.15028853 -165.56451108 261.08449569 -165.60960507 259.98640609 C-166.62762798 234.5706147 -166.63191994 209.15908896 -166.60734677 183.72633529 C-166.60166974 177.80072413 -166.60502747 171.87515808 -166.61078477 165.94954848 C-166.62880047 144.11497215 -166.59755809 122.28656755 -166.02775693 100.45826888 C-166.00807481 99.69490596 -165.98839269 98.93154304 -165.96811414 98.1450479 C-165.30794865 73.37732109 -163.60544246 48.65848432 -161.68400693 23.96071029 C-161.49591047 21.46710138 -161.3243985 18.97335253 -161.16447568 16.47780013 C-161.08197568 15.19518294 -160.99947568 13.91256576 -160.91447568 12.59108138 C-160.85131162 11.54694076 -160.78814755 10.50280013 -160.72306943 9.42701888 C-160.47697568 7.21608138 -160.47697568 7.21608138 -159.47697568 6.21608138 C-157.14183322 5.94507614 -154.82815543 5.73667585 -152.48478818 5.56764388 C-151.41023169 5.48732468 -151.41023169 5.48732468 -150.31396699 5.40538287 C-100.15930529 1.69574804 -50.27272726 -0.25134687 0 0 Z " fill="#9DC5FA" transform="translate(246.47697567939758,79.78391861915588)"/>
<path d="M0 0 C8.37700156 -0.07491008 16.70783166 0.13993501 25.07421875 0.55078125 C26.30181412 0.60925735 27.52940948 0.66773346 28.79420471 0.72798157 C32.08203428 0.88621119 35.36968857 1.0475111 38.65724182 1.21137238 C40.69614554 1.31293064 42.73509362 1.41356075 44.77404785 1.51409912 C62.27758025 2.38047501 79.77069137 3.35099791 97.25 4.625 C98.5540126 4.71825058 98.5540126 4.71825058 99.8843689 4.81338501 C102.28278668 4.98678229 104.68051858 5.16732119 107.078125 5.3515625 C107.7761171 5.40250565 108.47410919 5.45344879 109.19325256 5.50593567 C113.88350476 5.88350476 113.88350476 5.88350476 115 7 C115.20680068 9.06838726 115.34870369 11.14329731 115.46484375 13.21875 C115.54154297 14.52956543 115.61824219 15.84038086 115.69726562 17.19091797 C115.73634033 17.89230896 115.77541504 18.59369995 115.81567383 19.31634521 C116.02208755 23.01617666 116.24291306 26.71513369 116.46484375 30.4140625 C116.5314772 31.5292778 116.5314772 31.5292778 116.59945679 32.66702271 C116.90811937 37.738969 117.29062452 42.80013235 117.73843384 47.8618927 C121.19868862 87.72224331 121.3486055 127.62176909 121.31367958 167.59727836 C121.3102384 172.88790351 121.31969709 178.17839599 121.33618164 183.46899414 C121.49340187 235.15044311 119.5027144 286.45352574 115.6484375 338.0078125 C115.59789058 338.70855172 115.54734365 339.40929094 115.49526501 340.13126469 C115.11568407 344.88431593 115.11568407 344.88431593 114 346 C111.93161274 346.20680068 109.85670269 346.34870369 107.78125 346.46484375 C106.4708374 346.54154297 105.1604248 346.61824219 103.81030273 346.69726562 C102.75829178 346.75587769 102.75829178 346.75587769 101.68502808 346.81567383 C97.9782444 347.02234544 94.27230081 347.24286567 90.56640625 347.46484375 C89.82189713 347.50926605 89.077388 347.55368835 88.31031799 347.59945679 C83.26501636 347.90659333 78.232971 348.29993293 73.19848633 348.75268555 C42.27234132 351.52288494 11.04072939 352.49061335 -20 352 C-16.76941086 343.55598537 -10.33086476 340.32710005 -2.40234375 336.5078125 C2.54632694 334.31471619 7.58020773 332.38023813 12.65234375 330.4921875 C15.97725476 329.01013848 18.35965276 327.49338914 21 325 C22.00484655 322.22082704 22.00484655 322.22082704 21 319 C18.45881098 314.96724351 15.68580907 311.22086173 11.8046875 308.41015625 C10 307 10 307 9.375 304.125 C10.07441842 300.62790789 11.1230829 299.39778117 13.9375 297.2734375 C17.36899966 295.15474642 21.0331348 293.47629282 24.70703125 291.8203125 C27.31272247 290.0983242 27.31272247 290.0983242 28.078125 286.6328125 C27.98147609 282.13863821 26.98119129 280.97680767 23.9375 277.75 C16.62577623 269.4391587 12.3888217 260.47602094 9 250 C8.773125 249.30519531 8.54625 248.61039063 8.3125 247.89453125 C7.34188561 244.7332941 7 242.35795026 7 239 C7.98355469 239.144375 8.96710938 239.28875 9.98046875 239.4375 C35.98502853 243.14051833 35.98502853 243.14051833 60.5625 236.125 C64.06234225 233.07385548 65.82084415 230.54305197 66.36328125 225.87109375 C65.99847819 201.20479474 55.73210792 184.36585046 40.8125 165.1875 C39.42149458 163.39062412 38.03212343 161.59248172 36.64453125 159.79296875 C35.99653564 158.96498779 35.34854004 158.13700684 34.6809082 157.28393555 C33.26460462 155.35953177 32.18956023 153.51506757 31.09375 151.40625 C28.70283164 148.65847815 28.22564838 148.59901007 24.76171875 148.30078125 C23.07043375 148.28015582 21.37869473 148.28546744 19.6875 148.3125 C17.87613277 148.27899248 16.06489999 148.23725614 14.25390625 148.1875 C13.36074707 148.16429687 12.46758789 148.14109375 11.54736328 148.1171875 C-2.82214491 147.45614054 -18.73784864 142.44298222 -29 132 C-30.66140838 129.70744207 -31.78501851 127.58183566 -33 125 C-33.33 124.34 -33.66 123.68 -34 123 C-34.86765858 117.0255509 -34.0374682 112.75828872 -30.53125 107.83984375 C-22.52159497 98.21599803 -10.97041826 93.68627496 1 91 C0.58109506 84.76052117 0.08758958 78.57047261 -0.78662109 72.37646484 C-3.9666209 48.58556362 -2.33115205 23.78579665 0 0 Z " fill="#454045" transform="translate(311,80)"/>
<path d="M0 0 C1.51427582 0.00081573 1.51427582 0.00081573 3.05914307 0.00164795 C19.56873539 0.04241399 35.48532001 0.94970691 51.6875 4.375 C52.72938477 4.59462402 53.77126953 4.81424805 54.84472656 5.04052734 C69.12645001 8.15569796 84.54902231 11.70715129 97.66011047 18.37876892 C103.99659836 21.58709746 109.80173775 22.13857316 116.828125 22.46484375 C118.5928994 22.5692276 118.5928994 22.5692276 120.39332581 22.67572021 C122.92446102 22.8245065 125.45603263 22.9660152 127.98794556 23.10092163 C134.02375674 23.42426116 140.0565927 23.79384995 146.08938026 24.16869545 C147.46853731 24.25438758 148.8477275 24.33954776 150.22694969 24.4241848 C165.01294464 25.3349686 179.7551119 26.63441518 194.5 28.0625 C195.63223999 28.17109344 196.76447998 28.27968689 197.93103027 28.39157104 C201.127538 28.69908044 204.32365104 29.01025912 207.51953125 29.32421875 C208.45229385 29.41572205 209.38505646 29.50722534 210.34608459 29.60150146 C215.14742433 30.08364111 219.91640233 30.65158887 224.6875 31.375 C220.75726089 38.69161621 214.62202539 44.50841076 208.94287109 50.47900391 C207.5321903 51.98280321 206.14354819 53.50761001 204.77880859 55.05322266 C192.85176123 68.52781236 192.85176123 68.52781236 184.51049805 69.16113281 C180.0049892 69.10993648 175.62444003 68.51899253 171.18713379 67.7678833 C167.48935857 67.18668051 163.80153103 67.03698616 160.06640625 66.875 C157.46082265 66.71013856 154.85535007 66.54351178 152.25 66.375 C150.90299914 66.29159639 149.55599392 66.20826318 148.20898438 66.125 C146.92443359 66.0425 145.63988281 65.96 144.31640625 65.875 C142.6159314 65.76671875 142.6159314 65.76671875 140.88110352 65.65625 C137.6875 65.375 137.6875 65.375 135.19871521 64.9039917 C130.25248182 64.15880342 125.30621705 63.90827303 120.31445312 63.62988281 C118.60252022 63.53292744 118.60252022 63.53292744 116.85600281 63.43401337 C113.06061791 63.22436225 109.26485884 63.02422397 105.46875 62.828125 C104.81202616 62.79413384 104.15530231 62.76014269 103.47867775 62.7251215 C72.81607386 61.14974054 42.19781072 60.97596508 11.5017271 61.10237741 C6.55094903 61.12205142 1.60022898 61.13147776 -3.35058594 61.13476562 C-4.40782181 61.13547231 -4.40782181 61.13547231 -5.48641598 61.13619328 C-6.90653499 61.13712245 -8.326654 61.13805102 -9.746773 61.13897896 C-49.95487364 61.17019183 -89.93140565 61.80598021 -130.04156494 64.70318604 C-133.2948416 64.93648049 -136.54858848 65.16279716 -139.80237007 65.38892365 C-143.74601732 65.66317328 -147.68944078 65.94056988 -151.6328125 66.21875 C-152.35994572 66.26993484 -153.08707893 66.32111969 -153.83624649 66.37385559 C-161.6739959 66.92837049 -169.50007214 67.5282281 -177.3125 68.375 C-185.69078666 69.26105709 -185.69078666 69.26105709 -189.25 67.31640625 C-192.28111235 64.81979808 -194.77028203 61.85764101 -197.3046875 58.87109375 C-202.17244084 53.28607531 -207.47916754 48.13674799 -212.75 42.9375 C-214.75154113 40.96248189 -216.74977427 38.98420045 -218.74609375 37.00390625 C-220.06178345 35.7056189 -220.06178345 35.7056189 -221.40405273 34.38110352 C-223.3125 32.375 -223.3125 32.375 -223.3125 31.375 C-192.34757354 27.9819277 -161.38328623 25.28426308 -130.3046875 23.171875 C-129.23748978 23.09824738 -128.17029205 23.02461975 -127.070755 22.94876099 C-122.6160402 22.64529332 -118.16530366 22.35506558 -113.70385742 22.17236328 C-106.33333845 21.83347829 -100.54846531 20.88787391 -93.875 17.75 C-79.41312263 11.50278558 -64.30072497 7.21471336 -48.875 4.0625 C-48.15634766 3.91522461 -47.43769531 3.76794922 -46.69726562 3.61621094 C-31.17058409 0.66434406 -15.76947433 -0.0320801 0 0 Z " fill="#D8713D" transform="translate(255.3125,-0.375)"/>
<path d="M0 0 C-0.1446938 0.53557431 -0.28938761 1.07114862 -0.43846607 1.62295246 C-1.10236108 4.08856922 -1.76080343 6.55561182 -2.41918945 9.02270508 C-2.64683235 9.86492867 -2.87447525 10.70715225 -3.10901642 11.57489777 C-5.05832437 18.9050005 -6.27188576 26.15394527 -7.1875 33.6875 C-7.34984131 34.93136475 -7.51218262 36.17522949 -7.67944336 37.45678711 C-8.35019183 42.63118069 -8.98299373 47.80948309 -9.5859375 52.9921875 C-12.36125893 76.81552468 -12.36125893 76.81552468 -19.125 84.375 C-23.16798035 86.66016281 -26.46227816 86.87852874 -31 86 C-41.50062143 80.119652 -45.78782021 65.18120297 -49.9375 54.625 C-57.9504825 32.59869446 -57.9504825 32.59869446 -74.06640625 16.703125 C-80.28919893 14.4402913 -85.23919991 15.8106082 -91.125 18.5 C-100.57024861 23.64868063 -105.58589251 30.90042767 -109 41 C-110.40218812 46.24669682 -111.47870126 51.56670336 -112.56347656 56.88623047 C-117.25791174 79.61800887 -117.25791174 79.61800887 -125 87 C-129.76458433 89.6469913 -133.56854129 90.69127656 -139 90 C-153.35386097 82.82306952 -159.62324389 64.19894626 -165.85498047 50.43432617 C-167.80038698 46.20918814 -169.63509483 42.30481758 -173 39 C-176.70054409 39.0636079 -176.70054409 39.0636079 -180 40 C-185.70420824 52.20441862 -180.90403272 68.94258672 -178.8125 81.625 C-178.49103953 83.62990086 -178.17049164 85.63494825 -177.85083008 87.64013672 C-176.05861223 98.81889413 -174.15273014 109.97554375 -172.1875 121.125 C-169.46836313 136.7486621 -167.8245385 151.8553527 -167.65054321 167.72424316 C-167.63378585 169.17622733 -167.61133517 170.62815932 -167.58261108 172.07995605 C-167.40089435 182.39954573 -168.01321558 192.8371322 -174.1875 201.5625 C-179.13601676 205.85121453 -185.30060748 207.69474949 -191.890625 207.41796875 C-198.73533655 206.06170183 -204.54887567 202.27429578 -209 197 C-209.60800171 193.81387329 -209.60800171 193.81387329 -209.58349609 190.16650391 C-209.5858042 189.49613098 -209.5881123 188.82575806 -209.59049034 188.1350708 C-209.59203566 185.91478332 -209.55791826 183.69655943 -209.5234375 181.4765625 C-209.51705053 179.90807801 -209.51279975 178.33958354 -209.51055908 176.77108765 C-209.49808751 172.58625252 -209.45433265 168.40229833 -209.40363312 164.21777344 C-209.35588368 159.89398699 -209.33501102 155.57006025 -209.31005859 151.24609375 C-209.25166261 142.18874645 -209.15038332 133.13226767 -209.02798462 124.07557678 C-209.00244767 122.18153971 -208.97809003 120.28748683 -208.95385742 118.39343262 C-208.53974628 86.7768945 -206.65916141 55.26385278 -204.20703125 23.74462891 C-204.01893479 21.25101999 -203.84742282 18.75727115 -203.6875 16.26171875 C-203.605 14.97910156 -203.5225 13.69648437 -203.4375 12.375 C-203.37433594 11.33085938 -203.31117188 10.28671875 -203.24609375 9.2109375 C-203 7 -203 7 -202 6 C-199.66480207 5.72898832 -197.35118642 5.52116035 -195.0078125 5.3515625 C-193.89100349 5.26590279 -193.89100349 5.26590279 -192.75163269 5.17851257 C-183.22758246 4.46027893 -173.6966268 3.83607898 -164.16607666 3.21148682 C-161.08189746 3.00547057 -157.99870742 2.78828889 -154.91552734 2.56787109 C-103.34178804 -1.07488564 -51.66847696 -0.30013301 0 0 Z " fill="#8BC752" transform="translate(289,80)"/>
<path d="M0 0 C9.07923906 0.46680067 18.15053358 0.98031277 27.21484375 1.68359375 C28.00750641 1.74455231 28.80016907 1.80551086 29.61685181 1.86831665 C32.82082656 2.1156271 36.02468744 2.36384057 39.2277832 2.62231445 C45.81440109 3.15072764 52.40491249 3.59139707 59 4 C59.99550432 4.06276249 59.99550432 4.06276249 61.01111984 4.12679291 C94.08761132 6.19601133 127.15620146 6.31309101 160.28283423 6.25713831 C165.25490864 6.24961118 170.22690315 6.25230976 175.19897461 6.26074219 C221.10872717 6.3364309 266.8226605 5.15825681 312.625 1.875 C316.52040486 1.60115357 320.41593292 1.32923069 324.31161499 1.05935669 C326.67575343 0.89507788 329.03972223 0.72833026 331.4034729 0.55856323 C332.972267 0.4481218 332.972267 0.4481218 334.57275391 0.33544922 C335.93444199 0.23790848 335.93444199 0.23790848 337.32363892 0.13839722 C340.22005278 -0.01137914 343.10022949 -0.02284855 346 0 C343.00574279 4.06780797 339.61066656 7.13778153 335.625 10.1875 C335.01068115 10.6623584 334.3963623 11.1372168 333.76342773 11.62646484 C322.60899615 20.19236324 311.23019321 28.04382775 299 35 C298.36819824 35.36448242 297.73639648 35.72896484 297.08544922 36.10449219 C271.00035999 51.03473018 241.66414886 60.51385054 212 65 C210.87754883 65.17660156 209.75509766 65.35320312 208.59863281 65.53515625 C196.98552257 67.1920586 185.46820055 67.39873513 173.75 67.375 C172.23197784 67.37418427 172.23197784 67.37418427 170.68328857 67.37335205 C154.15469428 67.33261956 138.22086001 66.42924222 122 63 C120.95811523 62.78037598 119.91623047 62.56075195 118.84277344 62.33447266 C77.45922547 53.3077741 39.22430971 34.49662852 7 7 C6.26652344 6.38898438 5.53304687 5.77796875 4.77734375 5.1484375 C3.16161722 3.79289755 1.57631811 2.40117165 0 1 C0 0.67 0 0.34 0 0 Z " fill="#D8713D" transform="translate(83,445)"/>
<path d="M0 0 C11.03735781 9.25268896 19.73868692 22.05875995 21.04199219 36.71923828 C21.97256666 54.18865906 17.30361732 69.0680323 5.85546875 82.62109375 C-1.7622815 91.0650642 -14.37954005 97.83238494 -25.7355957 98.85424805 C-45.46547372 99.79742269 -57.86013703 96.88339328 -73.171875 83.90234375 C-77.94819803 79.47091932 -81.16568449 74.38237979 -84.14453125 68.62109375 C-84.87929687 67.29078125 -84.87929687 67.29078125 -85.62890625 65.93359375 C-91.37475561 53.79629397 -91.62568816 37.07372379 -87.20703125 24.43359375 C-79.00017111 7.16930253 -66.96512597 -3.72283871 -48.8828125 -10.1875 C-32.08782535 -14.8261155 -13.66962097 -10.34136543 0 0 Z " fill="#DC636E" transform="translate(222.14453125,267.37890625)"/>
<path d="M0 0 C1.07765625 0.44730469 2.1553125 0.89460937 3.265625 1.35546875 C11.79692184 5.2744019 19.54424977 10.13843696 23.375 19.03125 C24.88202287 23.77837205 24.41984597 27.53757618 22.4375 32 C16.45785571 42.71783994 5.78896729 47.95110107 -5.66967773 51.35791016 C-26.42678221 57.07725901 -51.12115386 56.21232517 -70.2734375 45.765625 C-77.23915612 41.25487311 -83.8529388 36.28152177 -86 28 C-86.75810261 22.0434795 -85.36489573 17.83703761 -82 13 C-64.25304328 -7.22129204 -23.76646281 -9.94374027 0 0 Z " fill="#FDBA18" transform="translate(232,174)"/>
<path d="M0 0 C1.25941406 -0.020625 2.51882813 -0.04125 3.81640625 -0.0625 C11.64446058 -0.09501528 18.33886976 0.73840737 25.75 3.25 C26.92691406 3.61480469 28.10382813 3.97960937 29.31640625 4.35546875 C38.3176276 7.60623578 44.71985185 12.12389594 51.375 18.9375 C53.61899434 24.34348636 53.65877227 29.50148704 52.75 35.25 C51.30087353 38.57478827 49.37313487 40.7747245 46.75 43.25 C46.14285156 43.85328125 45.53570312 44.4565625 44.91015625 45.078125 C29.99216835 58.24947708 8.00545728 59.1402162 -10.87988281 58.39794922 C-25.24785104 57.50106121 -40.94549219 52.73608504 -51.25 42.25 C-52.91140838 39.95744207 -54.03501851 37.83183566 -55.25 35.25 C-55.58 34.59 -55.91 33.93 -56.25 33.25 C-57.11765858 27.2755509 -56.2874682 23.00828872 -52.78125 18.08984375 C-39.75384436 2.43701707 -19.06078124 0.07709113 0 0 Z " fill="#DB636E" transform="translate(333.25,169.75)"/>
<path d="M0 0 C9.52873449 -0.0998354 19.03236548 -0.07385989 28.55331421 0.35488892 C51.1745875 1.33613587 73.8201391 1.15145978 96.45751953 1.13037109 C102.58445608 1.1247312 108.71134858 1.12801636 114.83828354 1.13382339 C145.90496582 1.15857294 176.94390974 0.81845845 208 0 C194.12625866 10.73519772 171.9320704 14.51469683 155 18 C153.99888184 18.21027832 152.99776367 18.42055664 151.96630859 18.63720703 C120.24636711 24.98924225 84.62625059 24.68608653 53 18 C51.43717285 17.67056396 51.43717285 17.67056396 49.84277344 17.33447266 C32.66898305 13.58847608 15.98591175 8.32717186 0 1 C0 0.67 0 0.34 0 0 Z " fill="#2E388E" transform="translate(152,490)"/>
<path d="M0 0 C0.93272232 -0.00979385 1.86544464 -0.01958771 2.82643127 -0.02967834 C23.54389979 -0.20231765 43.68301295 -0.06600471 64.04296875 4.23828125 C65.08485352 4.45790527 66.12673828 4.6775293 67.20019531 4.90380859 C84.3739857 8.64980517 101.057057 13.91110939 117.04296875 21.23828125 C117.04296875 21.56828125 117.04296875 21.89828125 117.04296875 22.23828125 C116.0604715 22.20864288 115.07797424 22.17900452 114.06570435 22.14846802 C83.01086674 21.23395987 51.96965093 21.0808941 20.90283203 21.10791016 C14.87497486 21.11308333 8.84715917 21.11154168 2.81930339 21.10608375 C-3.1196724 21.10093183 -9.05863812 21.10156 -14.99761581 21.10446548 C-17.46660238 21.10512084 -19.93558984 21.10435662 -22.40457535 21.10198593 C-35.7651549 21.09194318 -49.08844097 21.25644511 -62.43593025 21.88381767 C-71.94540422 22.32738903 -81.43950926 22.33398818 -90.95703125 22.23828125 C-86.36295986 18.50144176 -81.23152358 16.89815784 -75.70703125 14.92578125 C-74.5989209 14.52987793 -73.49081055 14.13397461 -72.34912109 13.72607422 C-54.96953762 7.66205466 -37.20541681 3.57859577 -18.95703125 1.23828125 C-18.28778625 1.15136017 -17.61854126 1.06443909 -16.92901611 0.97488403 C-11.27537706 0.2904239 -5.69203568 0.04953088 0 0 Z " fill="#2D388E" transform="translate(242.95703125,-0.23828125)"/>
<path d="M0 0 C0.33 0 0.66 0 1 0 C0.97494385 0.6330304 0.9498877 1.26606079 0.92407227 1.91827393 C-0.37831771 35.19197522 -1.25 68.44924263 -1.25 101.75 C-1.25 102.53460602 -1.25 103.31921204 -1.25 104.12759399 C-1.23577611 138.77121234 -0.26971433 173.38191239 1 208 C-2.64158242 203.29376413 -4.32124187 198.32737824 -6.3125 192.75 C-6.70840332 191.64188965 -7.10430664 190.5337793 -7.51220703 189.39208984 C-13.57642629 172.01193405 -17.65781313 154.24854133 -20 136 C-20.13099342 134.99919151 -20.13099342 134.99919151 -20.26463318 133.97816467 C-20.96087491 128.26179524 -21.17456164 122.62257368 -21.203125 116.8671875 C-21.21018463 115.92083939 -21.21724426 114.97449127 -21.22451782 113.99946594 C-21.45241099 74.48347888 -21.45241099 74.48347888 -18 58 C-17.80132324 57.02514648 -17.60264648 56.05029297 -17.39794922 55.04589844 C-13.46480669 36.24341485 -8.14429483 17.4405256 0 0 Z " fill="#2B378F" transform="translate(21,152)"/>
<path d="M0 0 C10.91023001 13.4130395 14.57466459 36.35926103 18 53 C18.21027832 54.00111816 18.42055664 55.00223633 18.63720703 56.03369141 C24.98924225 87.75363289 24.68608653 123.37374941 18 155 C17.78037598 156.04188477 17.56075195 157.08376953 17.33447266 158.15722656 C13.58847608 175.33101695 8.32717186 192.01408825 1 208 C0.67 208 0.34 208 0 208 C0.03758423 207.04379257 0.03758423 207.04379257 0.07592773 206.06826782 C2.32953127 148.11015844 3.12314716 90.07994338 1.07287598 32.1003418 C0.94395954 28.38487077 0.8285189 24.6689688 0.7109375 20.953125 C0.48784116 13.96825036 0.25023177 6.98396055 0 0 Z " fill="#2B378F" transform="translate(490,152)"/>
<path d="M0 0 C10.11868876 -0.17935637 20.15663448 0.38578254 30.25 1 C31.88149137 1.09667616 33.51300172 1.19303253 35.14453125 1.2890625 C39.09658229 1.52236215 43.04835259 1.75996455 47 2 C45.58783622 10.60991976 42.95485621 18.61138265 40.10668945 26.82910156 C39.32239717 29.09638858 38.55213064 31.3680882 37.78320312 33.640625 C35.2249789 41.12433164 32.48403412 48.48594253 29.32421875 55.73828125 C29.0441951 56.38157379 28.76417145 57.02486633 28.47566223 57.68765259 C24.57763089 66.42754714 18.99937417 77.50031292 10 82 C8.45976004 82.06950541 6.91665012 82.08452357 5.375 82.0625 C4.55773437 82.05347656 3.74046875 82.04445313 2.8984375 82.03515625 C2.27195312 82.02355469 1.64546875 82.01195312 1 82 C0.86722656 80.99839844 0.73445313 79.99679688 0.59765625 78.96484375 C0.41928873 77.62239346 0.2409023 76.27994567 0.0625 74.9375 C-0.02451172 74.28072266 -0.11152344 73.62394531 -0.20117188 72.94726562 C-0.28818359 72.29306641 -0.37519531 71.63886719 -0.46484375 70.96484375 C-0.543396 70.3730835 -0.62194824 69.78132324 -0.70288086 69.17163086 C-0.95276112 67.3452669 -1.23420518 65.52326088 -1.52294922 63.70263672 C-2.35745614 57.2255989 -2.19391316 50.70808466 -2.1875 44.1875 C-2.1882251 43.44187805 -2.1889502 42.6962561 -2.18969727 41.92803955 C-2.18819377 27.88054749 -1.38983238 13.98334015 0 0 Z " fill="#43B474" transform="translate(311,80)"/>
<path d="M0 0 C4.67223709 2.9695028 8.46411618 7.1462548 10.21875 12.41015625 C10.960165 19.25305206 10.30928621 24.75892315 6.21875 30.41015625 C2.41616728 34.50444395 -1.85707122 37.03924272 -7.4296875 37.74609375 C-13.85337464 37.83812365 -17.62321295 37.33026441 -22.78125 33.41015625 C-27.64793456 28.67324995 -29.84055738 24.27672113 -30.15625 17.53515625 C-30.00549182 11.55803778 -28.26919586 7.96295378 -24.1328125 3.71875 C-16.61007876 -3.09770088 -9.32934518 -4.45699881 0 0 Z " fill="#3E4546" transform="translate(210.78125,179.58984375)"/>
<path d="M0 0 C4.71216147 3.5628538 9.16167162 8.05402081 10.5625 13.9375 C11.36735651 20.46438325 10.39544298 25.53599882 6.5625 30.9375 C2.68803323 35.11980112 -1.62252126 37.53369615 -7.26953125 38.34375 C-13.78384773 38.54865642 -17.84649112 38.03078847 -22.81640625 33.66015625 C-27.78198062 28.38348566 -29.75797969 23.51144299 -29.65234375 16.28125 C-29.07880569 10.02447119 -26.08479886 5.92089902 -21.4375 1.9375 C-15.09184548 -2.59980738 -7.27831431 -2.24966079 0 0 Z " fill="#3D4447" transform="translate(341.4375,179.0625)"/>
<path d="M0 0 C3.73643998 1.33394399 6.88281913 2.79150971 9.90234375 5.43359375 C10.37285156 5.08425781 10.84335937 4.73492187 11.328125 4.375 C11.95074219 3.91996094 12.57335937 3.46492187 13.21484375 2.99609375 C13.82972656 2.54363281 14.44460938 2.09117188 15.078125 1.625 C18.17141238 -0.39524122 20.86295243 -0.72423663 24.46484375 -0.75390625 C25.64240234 -0.77517578 25.64240234 -0.77517578 26.84375 -0.796875 C28.90234375 -0.56640625 28.90234375 -0.56640625 30.90234375 1.43359375 C31.219878 4.41841573 31.41706827 6.53282583 29.90234375 9.18359375 C27.8142641 10.48864353 26.35438603 10.81911582 23.96484375 11.30859375 C20.87471372 12.00599924 19.95628177 12.383914 17.52734375 14.62109375 C15.68379591 17.81184962 14.84038863 20.88242384 13.90234375 24.43359375 C11.90234375 26.43359375 11.90234375 26.43359375 9.46484375 26.74609375 C6.90234375 26.43359375 6.90234375 26.43359375 5.15234375 25.37109375 C3.90234375 23.43359375 3.90234375 23.43359375 3.46484375 19.99609375 C3.16548585 16.48856522 3.16548585 16.48856522 1.40234375 14.18359375 C-1.61866767 12.06888576 -4.54479693 11.14121183 -8.07421875 10.14453125 C-10.09765625 9.43359375 -10.09765625 9.43359375 -12.09765625 7.43359375 C-11.84765625 3.87109375 -11.84765625 3.87109375 -11.09765625 0.43359375 C-7.54616951 -1.34214962 -3.78530608 -1.02210313 0 0 Z " fill="#9AC2F6" transform="translate(377.09765625,124.56640625)"/>
</svg>
